<?xml version="1.0" encoding="UTF-8" standalone="no"?>
<!-- Created with Inkscape (http://www.inkscape.org/) -->

<svg
   xmlns:dc="http://purl.org/dc/elements/1.1/"
   xmlns:cc="http://creativecommons.org/ns#"
   xmlns:rdf="http://www.w3.org/1999/02/22-rdf-syntax-ns#"
   xmlns:svg="http://www.w3.org/2000/svg"
   xmlns="http://www.w3.org/2000/svg"
   xmlns:sodipodi="http://sodipodi.sourceforge.net/DTD/sodipodi-0.dtd"
   xmlns:inkscape="http://www.inkscape.org/namespaces/inkscape"
   width="6629.6929"
   height="2034.6147"
   id="svg2"
   version="1.1"
   inkscape:version="0.48.5 r10040"
   sodipodi:docname="HiND_logo.svg">
  <defs
     id="defs4" />
  <sodipodi:namedview
     id="base"
     pagecolor="#ffffff"
     bordercolor="#666666"
     borderopacity="1.0"
     inkscape:pageopacity="0.0"
     inkscape:pageshadow="2"
     inkscape:zoom="0.175"
     inkscape:cx="2521.0898"
     inkscape:cy="1630.6828"
     inkscape:document-units="px"
     inkscape:current-layer="layer1"
     showgrid="false"
     inkscape:snap-bbox="true"
     inkscape:bbox-nodes="false"
     inkscape:object-nodes="true"
     inkscape:object-paths="true"
     showguides="true"
     inkscape:guide-bbox="true"
     inkscape:snap-nodes="true"
     inkscape:snap-bbox-edge-midpoints="true"
     fit-margin-top="0"
     fit-margin-left="0"
     fit-margin-right="0"
     fit-margin-bottom="0"
     inkscape:snap-page="true"
     inkscape:snap-global="true"
     inkscape:window-width="1920"
     inkscape:window-height="1057"
     inkscape:window-x="-8"
     inkscape:window-y="-8"
     inkscape:window-maximized="1"
     inkscape:snap-smooth-nodes="true" />
  <metadata
     id="metadata7">
    <rdf:RDF>
      <cc:Work
         rdf:about="">
        <dc:format>image/svg+xml</dc:format>
        <dc:type
           rdf:resource="http://purl.org/dc/dcmitype/StillImage" />
        <dc:title />
      </cc:Work>
    </rdf:RDF>
  </metadata>
  <g
     inkscape:label="Layer 1"
     inkscape:groupmode="layer"
     id="layer1"
     transform="translate(2437.0031,128.6941)">
    <g
       id="g4355"
       style="font-size:10.07622242px;font-style:normal;font-variant:normal;font-weight:normal;font-stretch:normal;text-align:start;line-height:125%;letter-spacing:0px;word-spacing:0px;writing-mode:lr-tb;text-anchor:start;fill:#000000;fill-opacity:1;stroke:none;font-family:Palatino Linotype;-inkscape-font-specification:Palatino Linotype"
       transform="matrix(228.26014,0,0,228.26014,150349.96,-41199.216)">
      <path
         style="fill:#000000;fill-opacity:1;stroke:none"
         inkscape:connector-curvature="0"
         id="path4357"
         d="m -668.27222,180.81097 c 0.83641,0.0263 1.30545,0.0394 1.40713,0.0394 0.10824,1e-5 0.57892,-0.0131 1.41205,-0.0394 l 0.0394,0.0344 0,0.246 -0.0394,0.0344 c -0.22633,0.007 -0.40099,0.0164 -0.52398,0.0295 -0.12301,0.0131 -0.21239,0.0377 -0.26815,0.0738 -0.0558,0.0361 -0.0927,0.12054 -0.1107,0.25338 -0.018,0.13284 -0.0271,0.31734 -0.0271,0.5535 l -0.01,1.13161 0,0.6888 c 0.71833,0.0197 1.39893,0.0295 2.04182,0.0295 0.87904,1e-5 1.54816,-0.01 2.00737,-0.0295 l 0,-0.6888 -0.01,-0.95941 c -0.003,-0.37391 -0.0131,-0.615 -0.0295,-0.72324 -0.0164,-0.10824 -0.0394,-0.1804 -0.0689,-0.21648 -0.0295,-0.0361 -0.0886,-0.0656 -0.17712,-0.0886 -0.0886,-0.023 -0.30833,-0.041 -0.65929,-0.0541 l -0.0344,-0.0344 0,-0.246 0.0344,-0.0344 c 0.83968,0.0263 1.31036,0.0394 1.41205,0.0394 0.11152,10e-6 0.5822,-0.0131 1.41205,-0.0394 l 0.0394,0.0344 0,0.246 -0.0394,0.0344 c -0.22961,0.007 -0.40591,0.0164 -0.5289,0.0295 -0.12301,0.0131 -0.21239,0.0377 -0.26814,0.0738 -0.0558,0.0361 -0.0919,0.12054 -0.10825,0.25338 -0.0164,0.13284 -0.0262,0.31734 -0.0295,0.5535 l -0.01,1.13161 0,2.27797 0.01,0.95941 c 0.003,0.37064 0.0131,0.61008 0.0295,0.71832 0.0164,0.10824 0.0402,0.1804 0.0713,0.21648 0.0312,0.0361 0.0902,0.0664 0.17712,0.091 0.0869,0.0246 0.30585,0.0435 0.65682,0.0566 l 0.0394,0.0295 0,0.24601 -0.0394,0.0394 c -0.83969,-0.0262 -1.31037,-0.0394 -1.41205,-0.0394 -0.10497,0 -0.57565,0.0131 -1.41205,0.0394 l -0.0344,-0.0394 0,-0.24601 0.0344,-0.0295 c 0.30832,-0.0131 0.51332,-0.0295 0.61501,-0.0492 0.10167,-0.0197 0.16891,-0.0451 0.20172,-0.0763 0.0328,-0.0312 0.0607,-0.0976 0.0836,-0.19926 0.023,-0.10168 0.0344,-0.328 0.0344,-0.67896 l 0.01,-1.03813 0,-1.12177 c -0.97089,-0.0197 -1.6515,-0.0295 -2.04181,-0.0295 -0.40017,10e-6 -1.06929,0.01 -2.00738,0.0295 l 0,1.12177 0.005,0.95941 c 0.003,0.37064 0.0131,0.61008 0.0295,0.71832 0.0164,0.10824 0.0402,0.1804 0.0713,0.21648 0.0312,0.0361 0.091,0.0664 0.17959,0.091 0.0885,0.0246 0.30667,0.0435 0.65436,0.0566 l 0.0394,0.0295 0,0.24601 -0.0394,0.0394 c -0.83641,-0.0262 -1.30709,-0.0394 -1.41205,-0.0394 -0.10168,0 -0.57072,0.0131 -1.40713,0.0394 l -0.0394,-0.0394 0,-0.24601 0.0394,-0.0295 c 0.30504,-0.0131 0.5084,-0.0295 0.61009,-0.0492 0.10168,-0.0197 0.16974,-0.0451 0.20418,-0.0763 0.0344,-0.0312 0.0623,-0.0976 0.0836,-0.19926 0.0213,-0.10168 0.0336,-0.328 0.0369,-0.67896 l 0.005,-1.03813 0,-2.27797 -0.01,-0.95941 c -0.003,-0.37391 -0.0123,-0.615 -0.0271,-0.72324 -0.0148,-0.10824 -0.0377,-0.1804 -0.0689,-0.21648 -0.0312,-0.0361 -0.091,-0.0656 -0.17958,-0.0886 -0.0886,-0.023 -0.30669,-0.041 -0.65437,-0.0541 l -0.0394,-0.0344 0,-0.246 z" />
      <path
         style="fill:#000000;fill-opacity:1;stroke:none"
         sodipodi:nodetypes="ccssccccccccscccccccssscccccccccc"
         inkscape:connector-curvature="0"
         id="path4359"
         d="m -658.3436,183.07419 0.0935,0.064 c -0.0361,0.42968 -0.0541,0.97581 -0.0541,1.63837 l 0,1.11192 c 0,0.0722 0.007,0.30423 0.0197,0.69619 0.0131,0.39196 0.0271,0.62074 0.0418,0.68634 0.0148,0.0656 0.0369,0.11316 0.0664,0.14268 0.0295,0.0295 0.0656,0.0484 0.10824,0.0566 0.0426,0.008 0.21976,0.0221 0.53137,0.0418 l 0.0443,0.0394 0,0.20665 -0.0394,0.0443 c -0.41001,-0.0262 -0.80525,-0.0394 -1.18573,-0.0394 -0.3772,0 -0.7708,0.0131 -1.18081,0.0394 l -0.0443,-0.0443 0,-0.20665 0.0443,-0.0394 c 0.31816,-0.0197 0.49775,-0.0344 0.53875,-0.0443 0.041,-0.01 0.0771,-0.0303 0.10824,-0.0615 0.0312,-0.0312 0.0525,-0.0787 0.064,-0.14268 0.0115,-0.064 0.0246,-0.27552 0.0394,-0.63468 0.0148,-0.35916 0.0221,-0.63058 0.0221,-0.81427 l 0,-0.96924 c 0,-0.1312 -0.007,-0.30996 -0.0197,-0.53629 -0.0131,-0.22631 -0.0238,-0.36571 -0.032,-0.4182 -0.008,-0.0525 -0.0336,-0.091 -0.0763,-0.11562 -0.0426,-0.0246 -0.12792,-0.0369 -0.25584,-0.0369 l -0.41329,-0.005 -0.0443,-0.0394 0,-0.21156 0.0394,-0.0394 c 0.62649,-0.0754 1.15457,-0.19844 1.58425,-0.369 z" />
      <path
         style="fill:#000000;fill-opacity:1;stroke:none"
         inkscape:connector-curvature="0"
         id="path4361"
         d="m -656.92171,187.79742 -0.0443,-0.0443 0,-0.22633 0.0443,-0.0394 c 0.20008,-0.003 0.35998,-0.0148 0.47971,-0.0344 0.11972,-0.0197 0.1968,-0.0525 0.23124,-0.0984 0.0344,-0.0459 0.0574,-0.11972 0.0689,-0.2214 0.0115,-0.10168 0.023,-0.33128 0.0344,-0.6888 0.0115,-0.35752 0.0172,-0.61336 0.0172,-0.76753 l 0,-3.97538 c 0,-0.16728 -0.0303,-0.2911 -0.091,-0.37146 -0.0607,-0.0804 -0.1435,-0.1312 -0.24846,-0.15252 -0.10497,-0.0213 -0.28373,-0.0336 -0.53629,-0.0369 l -0.0394,-0.0394 0,-0.23124 0.0394,-0.0443 c 0.45264,0.0164 0.74949,0.0246 0.89053,0.0246 0.33128,1e-5 0.60352,-0.008 0.81672,-0.0246 l 1.56949,2.0369 2.3075,2.89297 c 0.27879,0.35097 0.56251,0.68389 0.85116,0.99877 l 0,-3.8081 c 0,-0.11808 -0.006,-0.36982 -0.0172,-0.75523 -0.0115,-0.3854 -0.0254,-0.62976 -0.0418,-0.73308 -0.0164,-0.10332 -0.0451,-0.17302 -0.0861,-0.2091 -0.041,-0.0361 -0.11809,-0.0631 -0.23124,-0.0812 -0.11317,-0.018 -0.26651,-0.0287 -0.46002,-0.032 l -0.0394,-0.0394 0,-0.22632 0.0394,-0.0443 c 0.26567,0.0164 0.64451,0.0246 1.13652,0.0246 0.44936,1e-5 0.77572,-0.008 0.97909,-0.0246 l 0.0443,0.0443 0,0.22632 -0.0394,0.0394 c -0.21649,0.003 -0.38377,0.0156 -0.50184,0.0369 -0.11809,0.0213 -0.19189,0.0566 -0.2214,0.10579 -0.0295,0.0492 -0.05,0.12136 -0.0615,0.21648 -0.0115,0.0951 -0.023,0.32144 -0.0344,0.67896 -0.0115,0.35753 -0.0172,0.61501 -0.0172,0.77245 l 0,2.33701 0.005,1.35301 c 0.007,0.4428 0.0131,0.88724 0.0197,1.33333 -0.16401,-0.0558 -0.44773,-0.12464 -0.85117,-0.20664 l -0.34932,-0.41329 -1.04797,-1.2792 -3.33578,-4.16727 0,3.77366 c 0,0.15089 0.006,0.41985 0.0172,0.80689 0.0115,0.38704 0.0254,0.62156 0.0418,0.70356 0.0164,0.082 0.0377,0.13858 0.064,0.16974 0.0262,0.0312 0.0828,0.0599 0.16974,0.0861 0.0869,0.0262 0.2665,0.041 0.53875,0.0443 l 0.0394,0.0394 0,0.23125 -0.0394,0.0394 c -0.17057,-0.023 -0.44609,-0.0344 -0.82657,-0.0344 -0.48872,0 -0.91677,0.0115 -1.28413,0.0344 z" />
      <path
         style="fill:#000000;fill-opacity:1;stroke:none"
         inkscape:connector-curvature="0"
         id="path4363"
         d="m -648.7151,180.84541 0.0394,-0.0344 c 0.56745,0.0263 0.95449,0.0394 1.16113,0.0394 l 2.30258,-0.0492 c 0.65599,1e-5 1.19392,0.0615 1.61377,0.1845 0.41983,0.12301 0.79293,0.33621 1.1193,0.63961 0.32636,0.30341 0.574,0.65601 0.74293,1.0578 0.16891,0.40181 0.25337,0.83067 0.25338,1.28659 -10e-6,0.44281 -0.0771,0.88069 -0.23124,1.31365 -0.15417,0.43297 -0.37311,0.82083 -0.65683,1.16359 -0.28373,0.34276 -0.60681,0.6191 -0.96924,0.82902 -0.36245,0.20992 -0.72571,0.35015 -1.08979,0.42067 -0.36409,0.0705 -0.73637,0.10578 -1.11685,0.10578 -0.25584,0 -0.738,-0.01 -1.44649,-0.0295 -0.23288,-0.007 -0.38704,-0.01 -0.46248,-0.01 -0.22632,0 -0.5002,0.0131 -0.82164,0.0394 l -0.0394,-0.0394 0,-0.16237 0.0394,-0.0492 c 0.19352,-0.0984 0.30422,-0.1599 0.3321,-0.1845 0.0279,-0.0246 0.0508,-0.3116 0.0689,-0.861 0.018,-0.5494 0.0271,-0.96843 0.0271,-1.25707 l 0,-1.80565 -0.005,-1.11685 c 0,-0.24271 -0.003,-0.44033 -0.01,-0.59286 -0.007,-0.15252 -0.018,-0.26158 -0.0344,-0.32718 -0.0164,-0.0656 -0.0353,-0.11152 -0.0566,-0.13776 -0.0213,-0.0262 -0.0558,-0.0484 -0.10332,-0.0664 -0.0476,-0.018 -0.12874,-0.0336 -0.24354,-0.0468 l -0.37393,-0.0295 -0.0394,-0.0344 z m 1.82041,6.42064 c 0.33456,0.0656 0.71997,0.0984 1.15621,0.0984 0.76424,0 1.37515,-0.12792 1.83271,-0.38376 0.45756,-0.25584 0.7995,-0.63468 1.02583,-1.13653 0.22631,-0.50184 0.33948,-1.06764 0.33948,-1.69741 0,-0.92824 -0.24765,-1.6482 -0.74292,-2.15989 -0.49529,-0.51168 -1.27594,-0.76752 -2.34194,-0.76752 -0.43952,0 -0.86265,0.0328 -1.26937,0.0984 -0.0262,0.53793 -0.0394,1.14473 -0.0394,1.82041 l 0,1.54489 0.01,1.44649 c 0,0.28208 0.01,0.66092 0.0295,1.13652 z" />
    </g>
    <g
       id="g4274"
       transform="translate(-224.66037,-117.58297)">
      <g
         transform="matrix(1,0,0,1.0014948,-193.20369,-84.896377)"
         id="g4115">
        <path
           inkscape:connector-curvature="0"
           style="fill:#677821;fill-opacity:1;stroke:#000000;stroke-width:1px;stroke-linecap:butt;stroke-linejoin:miter;stroke-opacity:1"
           d="m 357.34375,292.96875 c -17.47397,7.14665 -33.71802,17.10156 -48.28125,29.15625 -0.33257,-3.98057 1.14244,-9.79137 4.78125,-17.875 -5.88158,6.35538 -7.71787,14.58363 -10.1875,22.53125 -9.88732,8.7989 -18.91273,18.58167 -26.90625,29.125 -0.79943,-5.26019 0.0296,-12.80845 0.46875,-19.78125 -2.15561,8.78304 -5.12248,17.04 -5.625,26.875 -4.93242,7.11748 -9.40644,14.53425 -13.375,22.1875 -2.28611,4.64012 -4.13768,9.41146 -5.65625,14.28125 -1.21564,-5.14874 -1.76175,-11.4927 -2.75,-17.03125 -0.62448,9.93001 -2.0186,20.3496 -0.25,28.84375 -2.85463,14.337 -3.24737,29.2631 -2.625,43.96875 -5.37245,-4.58067 -11.20871,-15.15254 -16.75,-21.84375 5.53352,10.05706 6.86611,21.14772 17.21875,30 0.19704,3.05447 0.40943,6.10942 0.65625,9.125 1.29924,10.73599 3.46217,21.47261 6.53125,31.96875 -5.33795,-2.24764 -10.66205,-9.64058 -16,-14.34375 5.19838,9.28632 11.43699,15.84329 18.15625,21.21875 4.32687,12.90871 10.09085,25.31245 17.4375,36.65625 -3.01613,-1.93453 -5.97075,-5.507 -12.84375,-7.0625 5.70708,4.9522 11.36659,10.1794 17.375,13.625 7.11359,9.73026 15.49919,18.55475 25.25,26.03125 2.88969,2.39586 5.85754,4.65962 8.875,6.84375 l -25.625,-6.5 c 11.99018,4.45717 21.58893,12.62308 35.90625,13.5 9.72926,6.17332 19.94027,11.57639 30.25,16.78125 -4.90052,1.94642 -12.21349,1.17532 -19.5,0.4375 9.49648,2.98511 19.1217,4.1974 28.84375,4.25 7.88209,3.8944 15.78032,7.76079 23.5625,11.8125 -4.91979,2.89316 -10.54382,0.55081 -15.75,1.34375 7.47436,1.77242 15.21404,2.85033 23.4375,2.75 5.55419,3.03865 11.01632,6.21666 16.34375,9.625 12.7657,8.16714 23.93685,18.57618 33.90625,30 20.6968,-7.36383 -7.87835,-21.51231 -15.96875,-27.125 -8.42437,-5.84431 -17.30395,-10.86127 -26.40625,-15.5 L 396.875,618.75 l 1.5,8.375 c -2.31502,-1.15286 -4.63714,-2.28377 -6.96875,-3.40625 l -7.5,-12.53125 2.71875,10.21875 C 381.42738,618.93665 376.20849,616.4981 371.03125,614 l -15.6875,-20.96875 c 2.35274,5.30446 5.80003,9.66391 6.5,16.4375 -1.5603,-0.79169 -3.10933,-1.59186 -4.65625,-2.40625 -7.03449,-3.2687 -13.98483,-6.75187 -20.71875,-10.59375 -3.09022,-9.06992 -8.7876,-14.84352 -13.875,-21.53125 1.63494,5.79524 7.14414,10.50498 5.90625,16.75 -9.28075,-5.92592 -17.95996,-12.73222 -25.5625,-20.90625 -3.60865,-3.50266 -6.99353,-7.17589 -10.1875,-11 l -3.09375,-23.03125 -1.1875,17.65625 c -8.72344,-11.48819 -15.75754,-24.17199 -21.15625,-37.5625 5.01714,-8.49477 7.17224,-17.53881 4.375,-21.28125 -1.05826,7.26105 -2.86909,13.2663 -5.96875,17.125 -5.21505,-13.92283 -8.72258,-28.55274 -10.65625,-43.34375 8.91858,-3.19415 10.43211,-14.56964 15.46875,-22.0625 -5.40236,5.31206 -10.64528,14.09385 -16.21875,15.8125 -0.97977,-9.75925 -1.28672,-19.55811 -0.9375,-29.25 0.0908,-3.48661 0.34892,-6.92813 0.75,-10.34375 10.31454,-6.26635 13.4527,-15.71604 19.4375,-23.90625 -6.0484,5.72622 -11.26606,15.07136 -18.3125,16.40625 2.96356,-16.13679 9.22055,-31.40788 17.65625,-45.53125 6.73629,-3.84733 15.59452,-6.64351 19.25,-12.03125 -5.24464,3.51313 -10.50536,5.71989 -15.75,6.4375 6.57183,-10.0901 14.22376,-19.5609 22.53125,-28.3125 7.83445,-1.57079 15.59116,-3.26938 22.3125,-6.84375 -8.18948,-1.23208 -12.07837,2.75225 -18.125,2.71875 l -1.03125,0.875 c 5.73959,-5.81176 11.75198,-11.29582 17.90625,-16.40625 11.49937,-9.34008 23.96256,-17.54905 37.34375,-23.9375 z"
           id="path3783" />
        <path
           sodipodi:nodetypes="csccsc"
           inkscape:connector-curvature="0"
           id="path3953"
           d="m 356.56123,319.22839 c -10.88108,1.73213 3.43831,13.41542 -26.07143,24.28571 -13.83541,5.09645 -26.16516,-11.92218 -29.64286,-6.78571 0.2005,-3.37896 17.7846,-5.0417 19.35858,-6.73354 -2.54008,-2.95144 -25.24814,8.69382 -14.89429,-0.0522 26.02163,-21.98072 30.04227,-3.57373 51.25,-10.71429 z"
           style="fill:#677821;fill-opacity:1;stroke:#000000;stroke-width:1px;stroke-linecap:butt;stroke-linejoin:miter;stroke-opacity:1" />
        <path
           sodipodi:nodetypes="ccccc"
           inkscape:connector-curvature="0"
           id="path3955"
           d="m 324.00365,348.28585 c -12.43083,18.35631 -15.53804,24.49754 -48.23478,23.73858 -5.24615,-2.14785 4.36783,-7.15342 16.41498,-12.62691 -7.88845,2.61709 -19.33479,9.20143 -16.92006,4.54569 9.71222,-8.77856 10.78901,-19.71454 48.73986,-15.65736 z"
           style="fill:#677821;fill-opacity:1;stroke:#000000;stroke-width:1px;stroke-linecap:butt;stroke-linejoin:miter;stroke-opacity:1" />
        <path
           sodipodi:nodetypes="cscccc"
           inkscape:connector-curvature="0"
           id="path3959"
           d="m 299.75999,378.33789 c -9.46268,10.30765 -6.61114,20.26408 -19.1929,32.07234 -7.68223,7.20995 -14.32317,9.22486 -22.47589,11.11168 -5.88125,4.85912 10.6066,-14.14213 15.9099,-21.2132 -6.03803,6.37093 -7.06453,6.853 -16.92006,17.67767 -1.87403,-8.47007 0.64939,-28.38048 42.67895,-39.64849 z"
           style="fill:#677821;fill-opacity:1;stroke:#000000;stroke-width:1px;stroke-linecap:butt;stroke-linejoin:miter;stroke-opacity:1" />
        <path
           sodipodi:nodetypes="cccccc"
           inkscape:connector-curvature="0"
           id="path3965"
           d="m 285.84694,419.94267 c -6.77969,23.06325 3.1477,22.90762 -6.78571,36.78572 -27.84964,22.50879 -26.39181,12.53867 -8.21429,-9.28577 -4.40476,5.77483 -14.8449,13.95172 -13.57143,17.14286 -7.2497,-0.0573 -0.65084,-36.29448 28.57143,-44.64286 z"
           style="fill:#677821;fill-opacity:1;stroke:#000000;stroke-width:1px;stroke-linecap:butt;stroke-linejoin:miter;stroke-opacity:1" />
        <path
           sodipodi:nodetypes="ccsccc"
           inkscape:connector-curvature="0"
           id="path3971"
           d="m 289.77551,537.08553 c -0.78398,6.78129 2.58795,14.17693 2.10325,23.40184 5.65034,-7.66012 11.30244,-10.80639 10.75389,-24.83041 -1.06335,-27.18551 -11.25579,-19.28971 -8.92857,-34.64286 -21.86242,31.78182 -13.86036,44.45136 -3.9069,57.51795 -0.676,-6.14801 -0.25334,-13.48318 -0.0217,-21.44652 z"
           style="fill:#677821;fill-opacity:1;stroke:#000000;stroke-width:1px;stroke-linecap:butt;stroke-linejoin:miter;stroke-opacity:1" />
        <path
           sodipodi:nodetypes="cccscsc"
           inkscape:connector-curvature="0"
           id="path3973"
           d="m 336.20409,596.72839 c -4.50257,-11.13073 -9.4772,-15.6526 -14.28572,-22.5 4.57654,7.73809 6.71104,11.94066 8.39811,19.67875 -7.26702,-4.95466 -13.45161,-3.98758 -20.26676,-26.4719 -2.42813,-8.0108 1.59707,-8.92168 1.86865,-22.13542 7.66383,7.04066 14.51244,13.35825 19.66453,24.85206 4.77747,10.65809 3.00315,17.89515 4.62119,26.57651 z"
           style="fill:#677821;fill-opacity:1;stroke:#000000;stroke-width:1px;stroke-linecap:butt;stroke-linejoin:miter;stroke-opacity:1" />
        <path
           sodipodi:nodetypes="cscccc"
           inkscape:connector-curvature="0"
           id="path3977"
           d="m 370.13266,612.08553 c -3.29174,-9.62762 -1.72546,-23.61852 -16.95903,-31.9157 -5.33223,-2.90428 -9.17576,-6.03163 -13.04097,-9.15573 -3.96793,29.03024 23.71524,37.39123 24.02946,38.96447 -7.07816,-13.46933 -5.09106,-11.1805 -9.38661,-18.60732 5.23181,7.17129 13.43461,21.3649 15.35715,20.71428 z"
           style="fill:#677821;fill-opacity:1;stroke:#000000;stroke-width:1px;stroke-linecap:butt;stroke-linejoin:miter;stroke-opacity:1" />
        <path
           sodipodi:nodetypes="ccccc"
           inkscape:connector-curvature="0"
           id="path3981"
           d="m 391.28705,623.00531 c 2.1423,-14.43962 -8.92312,-22.15727 -17.58296,-33.41978 -0.8401,16.59879 0.95728,22.43427 13.58566,31.96211 l -2.1571,-6.96211 z"
           style="fill:#677821;fill-opacity:1;stroke:#000000;stroke-width:1px;stroke-linecap:butt;stroke-linejoin:miter;stroke-opacity:1" />
        <path
           sodipodi:nodetypes="ccccc"
           inkscape:connector-curvature="0"
           id="path3983"
           d="m 402.19255,629.85974 c -1.1882,-1.72336 -2.3334,-3.10238 -3.8456,-7.41707 l 0.3571,6.42858 c -3.0265,-2.86686 -3.1392,-11.19735 -3.5714,-18.92858 4.2259,6.27978 11.7114,13.00319 7.0599,19.91707 z"
           style="fill:#677821;fill-opacity:1;stroke:#000000;stroke-width:1px;stroke-linecap:butt;stroke-linejoin:miter;stroke-opacity:1" />
        <path
           sodipodi:nodetypes="cscccc"
           inkscape:connector-curvature="0"
           id="path3987"
           d="m 266.42495,520.26432 c 8.3932,-6.1432 13.87193,-10.07337 17.93021,-24.4962 3.58346,-12.73536 -4.49503,-16.90863 -0.50508,-32.57742 -14.58304,13.93888 -24.81452,29.56223 -18.68782,51.51778 2.67403,-2.91055 5.07001,-8.87972 7.07107,-19.1929 0.52314,9.06934 -2.33742,17.01077 -5.80838,24.74874 z"
           style="fill:#677821;fill-opacity:1;stroke:#000000;stroke-width:1px;stroke-linecap:butt;stroke-linejoin:miter;stroke-opacity:1" />
        <path
           sodipodi:nodetypes="cscccssc"
           inkscape:connector-curvature="0"
           id="path3949"
           d="m 393.76282,283.15901 c -7.9456,2.1974 -13.80822,16.39918 -21.46574,20.70813 -14.56281,8.19462 -29.25296,0.56508 -35.98519,1.47159 7.25102,-4.32616 13.72007,-7.43991 22.2816,-12.2519 -8.0044,1.49875 -26.88767,13.46681 -26.95505,12.80062 2.75393,-3.35498 4.98551,-8.27698 7.07107,-13.63706 5.90902,-15.18669 23.8064,-16.61422 36.11295,-14.14214 4.7255,0.94923 15.09686,-0.82014 18.94036,5.05076 z"
           style="fill:#677821;stroke:#000000" />
        <path
           sodipodi:nodetypes="ccccsc"
           inkscape:connector-curvature="0"
           id="path3951"
           d="m 336.17345,273.06505 c 1.94837,34.37836 -19.35841,41.64484 -27.62386,50.39883 -1.82944,-5.19554 6.29283,-19.12704 5.11874,-19.03702 -3.70808,3.2349 -7.71,20.72977 -11.24488,23.81676 -9.54285,-28.24143 11.08199,-41.81991 14.64286,-42.5 5.95238,-1.13685 12.89218,-4.11554 19.10714,-12.67857 z"
           style="fill:#677821;fill-opacity:1;stroke:#000000;stroke-width:1px;stroke-linecap:butt;stroke-linejoin:miter;stroke-opacity:1" />
        <path
           sodipodi:nodetypes="ccccsc"
           inkscape:connector-curvature="0"
           id="path3957"
           d="m 277.78917,293.99015 c 15.54035,24.63624 10.78262,45.10877 0.25254,64.39723 -2.65284,7.82105 -2.63674,-8.44451 -0.50507,-22.4759 -2.86709,4.2731 -2.41734,25.6995 -7.07107,32.82996 -0.40114,-5.39871 -8.79318,-13.44446 -8.5863,-25.25381 0.52805,-30.1422 20.56615,-28.95151 15.9099,-49.49748 z"
           style="fill:#677821;fill-opacity:1;stroke:#000000;stroke-width:1px;stroke-linecap:butt;stroke-linejoin:miter;stroke-opacity:1" />
        <path
           sodipodi:nodetypes="ccccccc"
           inkscape:connector-curvature="0"
           id="path3961"
           d="m 238.14068,333.13356 c 10.76526,15.24157 15.49779,8.88836 18.94036,31.31473 6.32865,23.86749 1.11155,30.02677 -2.27284,39.64849 -2.30674,10.21007 -3.09237,-11.59371 -4.79822,-21.2132 -1.02172,9.2268 3.06329,30.60704 1.26269,31.31472 -6.62684,-2.782 -11.46653,-9.81782 -17.42513,-19.95051 -4.55401,-29.85458 9.39613,-30.74716 4.29314,-61.11423 z"
           style="fill:#677821;fill-opacity:1;stroke:#000000;stroke-width:1px;stroke-linecap:butt;stroke-linejoin:miter;stroke-opacity:1" />
        <path
           sodipodi:nodetypes="cscccsc"
           inkscape:connector-curvature="0"
           id="path3963"
           d="m 206.56123,393.5141 c 22.66912,13.31604 21.6089,4.80095 34.28572,27.50001 5.44085,9.74237 9.87663,31.3089 8.92856,39.99999 -5.65579,-4.29189 -12.78358,-17.4158 -19.28571,-26.78571 9.82774,21.46808 14.38445,25.15942 19.64286,31.07143 C 242.8103,462.62031 232.74,461.90311 225.4898,454.58553 203.63259,432.5252 219.17611,413.26088 206.56123,393.5141 z"
           style="fill:#677821;fill-opacity:1;stroke:#000000;stroke-width:1px;stroke-linecap:butt;stroke-linejoin:miter;stroke-opacity:1" />
        <path
           sodipodi:nodetypes="cccscc"
           inkscape:connector-curvature="0"
           id="path3967"
           d="m 256.20408,505.29982 c -3.5773,2.12329 -10.92666,-8.32699 -17.14285,-15 7.15045,11.39293 13.19212,17.18203 18.92857,21.42857 -6.03319,2.96694 -19.43621,-0.69937 -28.21429,-11.42857 -23.33174,-28.51774 -5.13267,-12.16495 -22.14285,-41.42857 19.91465,3.37263 39.8132,6.79757 48.57142,46.42857 z"
           style="fill:#677821;fill-opacity:1;stroke:#000000;stroke-width:1px;stroke-linecap:butt;stroke-linejoin:miter;stroke-opacity:1" />
        <path
           sodipodi:nodetypes="ccsccc"
           inkscape:connector-curvature="0"
           id="path3969"
           d="m 277.9898,550.65696 c -22.13823,-43.48163 -41.80667,-29.90582 -48.21429,-33.57143 17.90646,16.38552 8.46003,22.28402 26.74239,32.3954 7.3342,4.0563 16.83944,7.93583 27.54333,9.74746 -6.14039,-5.29928 -3.07173,-6.21329 -21.78572,-17.5 6.23216,1.73361 10.73513,5.62871 15.71429,8.92857 z"
           style="fill:#677821;fill-opacity:1;stroke:#000000;stroke-width:1px;stroke-linecap:butt;stroke-linejoin:miter;stroke-opacity:1" />
        <path
           sodipodi:nodetypes="cscsccc"
           inkscape:connector-curvature="0"
           id="path3975"
           d="m 315.84694,589.94267 c -7.44173,-7.76478 -15.14739,-15.77536 -24.28571,-19.3507 -12.9498,-5.06657 -16.13819,1.03173 -26.42857,-4.57787 2.96943,12.11142 18.65246,25.82622 30.76876,28.44516 8.5515,1.84841 18.7761,1.61344 25.65981,0.12627 -11.9524,-2.61898 -23.35728,-7.9755 -34.64286,-13.92857 10.12811,3.74391 22.23908,10.13842 28.92857,9.28571 z"
           style="fill:#677821;fill-opacity:1;stroke:#000000;stroke-width:1px;stroke-linecap:butt;stroke-linejoin:miter;stroke-opacity:1" />
        <path
           sodipodi:nodetypes="cscsccc"
           inkscape:connector-curvature="0"
           id="path3979"
           d="m 356.00539,611.72839 c -9.72163,-4.76031 -15.76863,-8.99933 -24.36123,-8.25761 -12.33276,1.06456 -20.28323,2.96678 -29.0115,6.11475 11.25195,6.43697 21.02835,15.40159 35.35714,16.42857 9.9147,0.71061 16.59595,-5.42169 23.57143,-11.07143 -11.80836,1.01228 -19.92593,-2.19349 -29.64286,-3.57142 8.90885,0.16512 18.20596,3.5226 24.08702,0.35714 z"
           style="fill:#677821;fill-opacity:1;stroke:#000000;stroke-width:1px;stroke-linecap:butt;stroke-linejoin:miter;stroke-opacity:1" />
        <path
           sodipodi:nodetypes="ccccc"
           inkscape:connector-curvature="0"
           id="path3985"
           d="m 391.56125,631.0141 c -15.03121,6.91617 -29.13171,6.38685 -42.14288,-2.85714 14.82435,-11.13939 26.68259,-9.0454 37.14288,-0.71429 -3.08514,3.13523 -8.98727,1.76326 -13.57145,2.5 7.44848,1.47537 14.13585,2.2742 18.57145,1.07143 z"
           style="fill:#677821;fill-opacity:1;stroke:#000000;stroke-width:1px;stroke-linecap:butt;stroke-linejoin:miter;stroke-opacity:1" />
      </g>
      <g
         transform="matrix(-1,0,0,1.0014948,618.91803,-84.896377)"
         id="g4138">
        <path
           inkscape:connector-curvature="0"
           id="path4140"
           d="m 357.34375,292.96875 c -17.47397,7.14665 -33.71802,17.10156 -48.28125,29.15625 -0.33257,-3.98057 1.14244,-9.79137 4.78125,-17.875 -5.88158,6.35538 -7.71787,14.58363 -10.1875,22.53125 -9.88732,8.7989 -18.91273,18.58167 -26.90625,29.125 -0.79943,-5.26019 0.0296,-12.80845 0.46875,-19.78125 -2.15561,8.78304 -5.12248,17.04 -5.625,26.875 -4.93242,7.11748 -9.40644,14.53425 -13.375,22.1875 -2.28611,4.64012 -4.13768,9.41146 -5.65625,14.28125 -1.21564,-5.14874 -1.76175,-11.4927 -2.75,-17.03125 -0.62448,9.93001 -2.0186,20.3496 -0.25,28.84375 -2.85463,14.337 -3.24737,29.2631 -2.625,43.96875 -5.37245,-4.58067 -11.20871,-15.15254 -16.75,-21.84375 5.53352,10.05706 6.86611,21.14772 17.21875,30 0.19704,3.05447 0.40943,6.10942 0.65625,9.125 1.29924,10.73599 3.46217,21.47261 6.53125,31.96875 -5.33795,-2.24764 -10.66205,-9.64058 -16,-14.34375 5.19838,9.28632 11.43699,15.84329 18.15625,21.21875 4.32687,12.90871 10.09085,25.31245 17.4375,36.65625 -3.01613,-1.93453 -5.97075,-5.507 -12.84375,-7.0625 5.70708,4.9522 11.36659,10.1794 17.375,13.625 7.11359,9.73026 15.49919,18.55475 25.25,26.03125 2.88969,2.39586 5.85754,4.65962 8.875,6.84375 l -25.625,-6.5 c 11.99018,4.45717 21.58893,12.62308 35.90625,13.5 9.72926,6.17332 19.94027,11.57639 30.25,16.78125 -4.90052,1.94642 -12.21349,1.17532 -19.5,0.4375 9.49648,2.98511 19.1217,4.1974 28.84375,4.25 7.88209,3.8944 15.78032,7.76079 23.5625,11.8125 -4.91979,2.89316 -10.54382,0.55081 -15.75,1.34375 7.47436,1.77242 15.21404,2.85033 23.4375,2.75 5.55419,3.03865 11.01632,6.21666 16.34375,9.625 12.7657,8.16714 23.93685,18.57618 33.90625,30 20.6968,-7.36383 -7.87835,-21.51231 -15.96875,-27.125 -8.42437,-5.84431 -17.30395,-10.86127 -26.40625,-15.5 L 396.875,618.75 l 1.5,8.375 c -2.31502,-1.15286 -4.63714,-2.28377 -6.96875,-3.40625 l -7.5,-12.53125 2.71875,10.21875 C 381.42738,618.93665 376.20849,616.4981 371.03125,614 l -15.6875,-20.96875 c 2.35274,5.30446 5.80003,9.66391 6.5,16.4375 -1.5603,-0.79169 -3.10933,-1.59186 -4.65625,-2.40625 -7.03449,-3.2687 -13.98483,-6.75187 -20.71875,-10.59375 -3.09022,-9.06992 -8.7876,-14.84352 -13.875,-21.53125 1.63494,5.79524 7.14414,10.50498 5.90625,16.75 -9.28075,-5.92592 -17.95996,-12.73222 -25.5625,-20.90625 -3.60865,-3.50266 -6.99353,-7.17589 -10.1875,-11 l -3.09375,-23.03125 -1.1875,17.65625 c -8.72344,-11.48819 -15.75754,-24.17199 -21.15625,-37.5625 5.01714,-8.49477 7.17224,-17.53881 4.375,-21.28125 -1.05826,7.26105 -2.86909,13.2663 -5.96875,17.125 -5.21505,-13.92283 -8.72258,-28.55274 -10.65625,-43.34375 8.91858,-3.19415 10.43211,-14.56964 15.46875,-22.0625 -5.40236,5.31206 -10.64528,14.09385 -16.21875,15.8125 -0.97977,-9.75925 -1.28672,-19.55811 -0.9375,-29.25 0.0908,-3.48661 0.34892,-6.92813 0.75,-10.34375 10.31454,-6.26635 13.4527,-15.71604 19.4375,-23.90625 -6.0484,5.72622 -11.26606,15.07136 -18.3125,16.40625 2.96356,-16.13679 9.22055,-31.40788 17.65625,-45.53125 6.73629,-3.84733 15.59452,-6.64351 19.25,-12.03125 -5.24464,3.51313 -10.50536,5.71989 -15.75,6.4375 6.57183,-10.0901 14.22376,-19.5609 22.53125,-28.3125 7.83445,-1.57079 15.59116,-3.26938 22.3125,-6.84375 -8.18948,-1.23208 -12.07837,2.75225 -18.125,2.71875 l -1.03125,0.875 c 5.73959,-5.81176 11.75198,-11.29582 17.90625,-16.40625 11.49937,-9.34008 23.96256,-17.54905 37.34375,-23.9375 z"
           style="fill:#677821;fill-opacity:1;stroke:#000000;stroke-width:1px;stroke-linecap:butt;stroke-linejoin:miter;stroke-opacity:1" />
        <path
           style="fill:#677821;fill-opacity:1;stroke:#000000;stroke-width:1px;stroke-linecap:butt;stroke-linejoin:miter;stroke-opacity:1"
           d="m 356.56123,319.22839 c -10.88108,1.73213 3.43831,13.41542 -26.07143,24.28571 -13.83541,5.09645 -26.16516,-11.92218 -29.64286,-6.78571 0.2005,-3.37896 17.7846,-5.0417 19.35858,-6.73354 -2.54008,-2.95144 -25.24814,8.69382 -14.89429,-0.0522 26.02163,-21.98072 30.04227,-3.57373 51.25,-10.71429 z"
           id="path4142"
           inkscape:connector-curvature="0"
           sodipodi:nodetypes="csccsc" />
        <path
           style="fill:#677821;fill-opacity:1;stroke:#000000;stroke-width:1px;stroke-linecap:butt;stroke-linejoin:miter;stroke-opacity:1"
           d="m 324.00365,348.28585 c -12.43083,18.35631 -15.53804,24.49754 -48.23478,23.73858 -5.24615,-2.14785 4.36783,-7.15342 16.41498,-12.62691 -7.88845,2.61709 -19.33479,9.20143 -16.92006,4.54569 9.71222,-8.77856 10.78901,-19.71454 48.73986,-15.65736 z"
           id="path4144"
           inkscape:connector-curvature="0"
           sodipodi:nodetypes="ccccc" />
        <path
           style="fill:#677821;fill-opacity:1;stroke:#000000;stroke-width:1px;stroke-linecap:butt;stroke-linejoin:miter;stroke-opacity:1"
           d="m 299.75999,378.33789 c -9.46268,10.30765 -6.61114,20.26408 -19.1929,32.07234 -7.68223,7.20995 -14.32317,9.22486 -22.47589,11.11168 -5.88125,4.85912 10.6066,-14.14213 15.9099,-21.2132 -6.03803,6.37093 -7.06453,6.853 -16.92006,17.67767 -1.87403,-8.47007 0.64939,-28.38048 42.67895,-39.64849 z"
           id="path4146"
           inkscape:connector-curvature="0"
           sodipodi:nodetypes="cscccc" />
        <path
           style="fill:#677821;fill-opacity:1;stroke:#000000;stroke-width:1px;stroke-linecap:butt;stroke-linejoin:miter;stroke-opacity:1"
           d="m 285.84694,419.94267 c -6.77969,23.06325 3.1477,22.90762 -6.78571,36.78572 -27.84964,22.50879 -26.39181,12.53867 -8.21429,-9.28577 -4.40476,5.77483 -14.8449,13.95172 -13.57143,17.14286 -7.2497,-0.0573 -0.65084,-36.29448 28.57143,-44.64286 z"
           id="path4148"
           inkscape:connector-curvature="0"
           sodipodi:nodetypes="cccccc" />
        <path
           style="fill:#677821;fill-opacity:1;stroke:#000000;stroke-width:1px;stroke-linecap:butt;stroke-linejoin:miter;stroke-opacity:1"
           d="m 289.77551,537.08553 c -0.78398,6.78129 2.58795,14.17693 2.10325,23.40184 5.65034,-7.66012 11.30244,-10.80639 10.75389,-24.83041 -1.06335,-27.18551 -11.25579,-19.28971 -8.92857,-34.64286 -21.86242,31.78182 -13.86036,44.45136 -3.9069,57.51795 -0.676,-6.14801 -0.25334,-13.48318 -0.0217,-21.44652 z"
           id="path4150"
           inkscape:connector-curvature="0"
           sodipodi:nodetypes="ccsccc" />
        <path
           style="fill:#677821;fill-opacity:1;stroke:#000000;stroke-width:1px;stroke-linecap:butt;stroke-linejoin:miter;stroke-opacity:1"
           d="m 336.20409,596.72839 c -4.50257,-11.13073 -9.4772,-15.6526 -14.28572,-22.5 4.57654,7.73809 6.71104,11.94066 8.39811,19.67875 -7.26702,-4.95466 -13.45161,-3.98758 -20.26676,-26.4719 -2.42813,-8.0108 1.59707,-8.92168 1.86865,-22.13542 7.66383,7.04066 14.51244,13.35825 19.66453,24.85206 4.77747,10.65809 3.00315,17.89515 4.62119,26.57651 z"
           id="path4152"
           inkscape:connector-curvature="0"
           sodipodi:nodetypes="cccscsc" />
        <path
           style="fill:#677821;fill-opacity:1;stroke:#000000;stroke-width:1px;stroke-linecap:butt;stroke-linejoin:miter;stroke-opacity:1"
           d="m 370.13266,612.08553 c -3.29174,-9.62762 -1.72546,-23.61852 -16.95903,-31.9157 -5.33223,-2.90428 -9.17576,-6.03163 -13.04097,-9.15573 -3.96793,29.03024 23.71524,37.39123 24.02946,38.96447 -7.07816,-13.46933 -5.09106,-11.1805 -9.38661,-18.60732 5.23181,7.17129 13.43461,21.3649 15.35715,20.71428 z"
           id="path4154"
           inkscape:connector-curvature="0"
           sodipodi:nodetypes="cscccc" />
        <path
           style="fill:#677821;fill-opacity:1;stroke:#000000;stroke-width:1px;stroke-linecap:butt;stroke-linejoin:miter;stroke-opacity:1"
           d="m 391.28705,623.00531 c 2.1423,-14.43962 -8.92312,-22.15727 -17.58296,-33.41978 -0.8401,16.59879 0.95728,22.43427 13.58566,31.96211 l -2.1571,-6.96211 z"
           id="path4156"
           inkscape:connector-curvature="0"
           sodipodi:nodetypes="ccccc" />
        <path
           style="fill:#677821;fill-opacity:1;stroke:#000000;stroke-width:1px;stroke-linecap:butt;stroke-linejoin:miter;stroke-opacity:1"
           d="m 402.19255,629.85974 c -1.1882,-1.72336 -2.3334,-3.10238 -3.8456,-7.41707 l 0.3571,6.42858 c -3.0265,-2.86686 -3.1392,-11.19735 -3.5714,-18.92858 4.2259,6.27978 11.7114,13.00319 7.0599,19.91707 z"
           id="path4158"
           inkscape:connector-curvature="0"
           sodipodi:nodetypes="ccccc" />
        <path
           style="fill:#677821;fill-opacity:1;stroke:#000000;stroke-width:1px;stroke-linecap:butt;stroke-linejoin:miter;stroke-opacity:1"
           d="m 266.42495,520.26432 c 8.3932,-6.1432 13.87193,-10.07337 17.93021,-24.4962 3.58346,-12.73536 -4.49503,-16.90863 -0.50508,-32.57742 -14.58304,13.93888 -24.81452,29.56223 -18.68782,51.51778 2.67403,-2.91055 5.07001,-8.87972 7.07107,-19.1929 0.52314,9.06934 -2.33742,17.01077 -5.80838,24.74874 z"
           id="path4160"
           inkscape:connector-curvature="0"
           sodipodi:nodetypes="cscccc" />
        <path
           style="fill:#677821;stroke:#000000"
           d="m 393.76282,283.15901 c -7.9456,2.1974 -13.80822,16.39918 -21.46574,20.70813 -14.56281,8.19462 -29.25296,0.56508 -35.98519,1.47159 7.25102,-4.32616 13.72007,-7.43991 22.2816,-12.2519 -8.0044,1.49875 -26.88767,13.46681 -26.95505,12.80062 2.75393,-3.35498 4.98551,-8.27698 7.07107,-13.63706 5.90902,-15.18669 23.8064,-16.61422 36.11295,-14.14214 4.7255,0.94923 15.09686,-0.82014 18.94036,5.05076 z"
           id="path4162"
           inkscape:connector-curvature="0"
           sodipodi:nodetypes="cscccssc" />
        <path
           style="fill:#677821;fill-opacity:1;stroke:#000000;stroke-width:1px;stroke-linecap:butt;stroke-linejoin:miter;stroke-opacity:1"
           d="m 336.17345,273.06505 c 1.94837,34.37836 -19.35841,41.64484 -27.62386,50.39883 -1.82944,-5.19554 6.29283,-19.12704 5.11874,-19.03702 -3.70808,3.2349 -7.71,20.72977 -11.24488,23.81676 -9.54285,-28.24143 11.08199,-41.81991 14.64286,-42.5 5.95238,-1.13685 12.89218,-4.11554 19.10714,-12.67857 z"
           id="path4164"
           inkscape:connector-curvature="0"
           sodipodi:nodetypes="ccccsc" />
        <path
           style="fill:#677821;fill-opacity:1;stroke:#000000;stroke-width:1px;stroke-linecap:butt;stroke-linejoin:miter;stroke-opacity:1"
           d="m 277.78917,293.99015 c 15.54035,24.63624 10.78262,45.10877 0.25254,64.39723 -2.65284,7.82105 -2.63674,-8.44451 -0.50507,-22.4759 -2.86709,4.2731 -2.41734,25.6995 -7.07107,32.82996 -0.40114,-5.39871 -8.79318,-13.44446 -8.5863,-25.25381 0.52805,-30.1422 20.56615,-28.95151 15.9099,-49.49748 z"
           id="path4166"
           inkscape:connector-curvature="0"
           sodipodi:nodetypes="ccccsc" />
        <path
           style="fill:#677821;fill-opacity:1;stroke:#000000;stroke-width:1px;stroke-linecap:butt;stroke-linejoin:miter;stroke-opacity:1"
           d="m 238.14068,333.13356 c 10.76526,15.24157 15.49779,8.88836 18.94036,31.31473 6.32865,23.86749 1.11155,30.02677 -2.27284,39.64849 -2.30674,10.21007 -3.09237,-11.59371 -4.79822,-21.2132 -1.02172,9.2268 3.06329,30.60704 1.26269,31.31472 -6.62684,-2.782 -11.46653,-9.81782 -17.42513,-19.95051 -4.55401,-29.85458 9.39613,-30.74716 4.29314,-61.11423 z"
           id="path4168"
           inkscape:connector-curvature="0"
           sodipodi:nodetypes="ccccccc" />
        <path
           style="fill:#677821;fill-opacity:1;stroke:#000000;stroke-width:1px;stroke-linecap:butt;stroke-linejoin:miter;stroke-opacity:1"
           d="m 206.56123,393.5141 c 22.66912,13.31604 21.6089,4.80095 34.28572,27.50001 5.44085,9.74237 9.87663,31.3089 8.92856,39.99999 -5.65579,-4.29189 -12.78358,-17.4158 -19.28571,-26.78571 9.82774,21.46808 14.38445,25.15942 19.64286,31.07143 C 242.8103,462.62031 232.74,461.90311 225.4898,454.58553 203.63259,432.5252 219.17611,413.26088 206.56123,393.5141 z"
           id="path4170"
           inkscape:connector-curvature="0"
           sodipodi:nodetypes="cscccsc" />
        <path
           style="fill:#677821;fill-opacity:1;stroke:#000000;stroke-width:1px;stroke-linecap:butt;stroke-linejoin:miter;stroke-opacity:1"
           d="m 256.20408,505.29982 c -3.5773,2.12329 -10.92666,-8.32699 -17.14285,-15 7.15045,11.39293 13.19212,17.18203 18.92857,21.42857 -6.03319,2.96694 -19.43621,-0.69937 -28.21429,-11.42857 -23.33174,-28.51774 -5.13267,-12.16495 -22.14285,-41.42857 19.91465,3.37263 39.8132,6.79757 48.57142,46.42857 z"
           id="path4172"
           inkscape:connector-curvature="0"
           sodipodi:nodetypes="cccscc" />
        <path
           style="fill:#677821;fill-opacity:1;stroke:#000000;stroke-width:1px;stroke-linecap:butt;stroke-linejoin:miter;stroke-opacity:1"
           d="m 277.9898,550.65696 c -22.13823,-43.48163 -41.80667,-29.90582 -48.21429,-33.57143 17.90646,16.38552 8.46003,22.28402 26.74239,32.3954 7.3342,4.0563 16.83944,7.93583 27.54333,9.74746 -6.14039,-5.29928 -3.07173,-6.21329 -21.78572,-17.5 6.23216,1.73361 10.73513,5.62871 15.71429,8.92857 z"
           id="path4174"
           inkscape:connector-curvature="0"
           sodipodi:nodetypes="ccsccc" />
        <path
           style="fill:#677821;fill-opacity:1;stroke:#000000;stroke-width:1px;stroke-linecap:butt;stroke-linejoin:miter;stroke-opacity:1"
           d="m 315.84694,589.94267 c -7.44173,-7.76478 -15.14739,-15.77536 -24.28571,-19.3507 -12.9498,-5.06657 -16.13819,1.03173 -26.42857,-4.57787 2.96943,12.11142 18.65246,25.82622 30.76876,28.44516 8.5515,1.84841 18.7761,1.61344 25.65981,0.12627 -11.9524,-2.61898 -23.35728,-7.9755 -34.64286,-13.92857 10.12811,3.74391 22.23908,10.13842 28.92857,9.28571 z"
           id="path4176"
           inkscape:connector-curvature="0"
           sodipodi:nodetypes="cscsccc" />
        <path
           style="fill:#677821;fill-opacity:1;stroke:#000000;stroke-width:1px;stroke-linecap:butt;stroke-linejoin:miter;stroke-opacity:1"
           d="m 356.00539,611.72839 c -9.72163,-4.76031 -15.76863,-8.99933 -24.36123,-8.25761 -12.33276,1.06456 -20.28323,2.96678 -29.0115,6.11475 11.25195,6.43697 21.02835,15.40159 35.35714,16.42857 9.9147,0.71061 16.59595,-5.42169 23.57143,-11.07143 -11.80836,1.01228 -19.92593,-2.19349 -29.64286,-3.57142 8.90885,0.16512 18.20596,3.5226 24.08702,0.35714 z"
           id="path4178"
           inkscape:connector-curvature="0"
           sodipodi:nodetypes="cscsccc" />
        <path
           style="fill:#677821;fill-opacity:1;stroke:#000000;stroke-width:1px;stroke-linecap:butt;stroke-linejoin:miter;stroke-opacity:1"
           d="m 391.56125,631.0141 c -15.03121,6.91617 -29.13171,6.38685 -42.14288,-2.85714 14.82435,-11.13939 26.68259,-9.0454 37.14288,-0.71429 -3.08514,3.13523 -8.98727,1.76326 -13.57145,2.5 7.44848,1.47537 14.13585,2.2742 18.57145,1.07143 z"
           id="path4180"
           inkscape:connector-curvature="0"
           sodipodi:nodetypes="ccccc" />
      </g>
    </g>
    <g
       id="g3063"
       transform="translate(-281.78293,-431.33029)">
      <path
         style="fill:#000000;fill-opacity:1;fill-rule:nonzero;stroke:none"
         d="m 4444.7798,2337.2509 c 0,0 -4.8338,-67.0115 0,-100 5.0006,-34.1253 29.6928,-99.1876 29.6928,-99.1876 -87.7139,28.3848 -169.7001,99.1876 -270.8357,99.1876 l -6329.1643,0 0,100 z"
         id="path3059"
         inkscape:connector-curvature="0"
         sodipodi:nodetypes="cscsccc" />
      <path
         sodipodi:nodetypes="cscsccc"
         inkscape:connector-curvature="0"
         id="path3061"
         d="m -2125.5274,2337.2509 c 0,0 4.8338,-67.0115 0,-100 -5.0006,-34.1253 -29.6928,-99.1876 -29.6928,-99.1876 87.7139,28.3848 169.7001,99.1876 270.8357,99.1876 l 6329.1643,0 0,100 z"
         style="fill:#000000;fill-opacity:1;fill-rule:nonzero;stroke:none" />
    </g>
    <g
       transform="matrix(1,0,0,-1,-281.78293,2208.5568)"
       id="g3067">
      <path
         sodipodi:nodetypes="cscsccc"
         inkscape:connector-curvature="0"
         id="path3069"
         d="m 4444.7798,2337.2509 c 0,0 -4.8338,-67.0115 0,-100 5.0006,-34.1253 29.6928,-99.1876 29.6928,-99.1876 -87.7139,28.3848 -169.7001,99.1876 -270.8357,99.1876 l -6329.1643,0 0,100 z"
         style="fill:#000000;fill-opacity:1;fill-rule:nonzero;stroke:none" />
      <path
         style="fill:#000000;fill-opacity:1;fill-rule:nonzero;stroke:none"
         d="m -2125.5274,2337.2509 c 0,0 4.8338,-67.0115 0,-100 -5.0006,-34.1253 -29.6928,-99.1876 -29.6928,-99.1876 87.7139,28.3848 169.7001,99.1876 270.8357,99.1876 l 6329.1643,0 0,100 z"
         id="path3071"
         inkscape:connector-curvature="0"
         sodipodi:nodetypes="cscsccc" />
    </g>
  </g>
</svg>
